<svg xmlns="http://www.w3.org/2000/svg" viewBox="0 0 32 32" width="32" height="32">
  <style>
    rect { shape-rendering: crispEdges; }
  </style>
  <!-- Outer ring -->
  <rect x="10" y="2" width="12" height="2" fill="#B8860B"/>
  <rect x="6" y="4" width="4" height="2" fill="#B8860B"/>
  <rect x="22" y="4" width="4" height="2" fill="#B8860B"/>
  <rect x="4" y="6" width="2" height="4" fill="#B8860B"/>
  <rect x="26" y="6" width="2" height="4" fill="#B8860B"/>
  <rect x="2" y="10" width="2" height="12" fill="#B8860B"/>
  <rect x="28" y="10" width="2" height="12" fill="#B8860B"/>
  <rect x="4" y="22" width="2" height="4" fill="#B8860B"/>
  <rect x="26" y="22" width="2" height="4" fill="#B8860B"/>
  <rect x="6" y="26" width="4" height="2" fill="#B8860B"/>
  <rect x="22" y="26" width="4" height="2" fill="#B8860B"/>
  <rect x="10" y="28" width="12" height="2" fill="#B8860B"/>
  <!-- Inner fill -->
  <rect x="10" y="4" width="12" height="2" fill="#FFD700"/>
  <rect x="6" y="6" width="20" height="2" fill="#FFD700"/>
  <rect x="4" y="8" width="24" height="2" fill="#FFD700"/>
  <rect x="4" y="10" width="24" height="12" fill="#FFD700"/>
  <rect x="4" y="22" width="24" height="2" fill="#FFD700"/>
  <rect x="6" y="24" width="20" height="2" fill="#FFD700"/>
  <rect x="10" y="26" width="12" height="2" fill="#FFD700"/>
  <!-- Highlight -->
  <rect x="10" y="6" width="8" height="2" fill="#FFF8B0"/>
  <rect x="6" y="8" width="6" height="2" fill="#FFF8B0"/>
  <rect x="6" y="10" width="4" height="4" fill="#FFF8B0"/>
  <!-- Dollar sign -->
  <rect x="15" y="8" width="2" height="2" fill="#B8860B"/>
  <rect x="11" y="10" width="10" height="2" fill="#B8860B"/>
  <rect x="11" y="12" width="4" height="2" fill="#B8860B"/>
  <rect x="11" y="14" width="10" height="2" fill="#B8860B"/>
  <rect x="17" y="16" width="4" height="2" fill="#B8860B"/>
  <rect x="11" y="18" width="10" height="2" fill="#B8860B"/>
  <rect x="15" y="20" width="2" height="2" fill="#B8860B"/>
</svg>
